<svg xmlns="http://www.w3.org/2000/svg" xmlns:xlink="http://www.w3.org/1999/xlink" width="500" zoomAndPan="magnify" viewBox="0 0 375 374.999991" height="500" preserveAspectRatio="xMidYMid meet" version="1.0"><defs><g/><clipPath id="a4141d7c98"><path d="M 18.757812 129.089844 L 356.242188 129.089844 L 356.242188 234.089844 L 18.757812 234.089844 Z M 18.757812 129.089844 " clip-rule="nonzero"/></clipPath><clipPath id="59fed198d7"><path d="M 57.050781 221.089844 L 317.949219 221.089844 L 317.949219 245.910156 L 57.050781 245.910156 Z M 57.050781 221.089844 " clip-rule="nonzero"/></clipPath></defs><g clip-path="url(#a4141d7c98)"><path stroke-linecap="butt" transform="matrix(0.75, 0, 0, 0.751342, 18.759267, 129.09087)" fill="none" stroke-linejoin="miter" d="M -0.00193873 -0.00136579 L 449.977257 -0.00136579 L 449.977257 139.748641 L -0.00193873 139.748641 L -0.00193873 -0.00136579 " stroke="#fbfaf9" stroke-width="2" stroke-opacity="1" stroke-miterlimit="4"/></g><g fill="#dec2ba" fill-opacity="1"><g transform="translate(67.262864, 200.715865)"><g><path d="M 29.59375 -35.40625 C 29.363281 -33.03125 29.25 -30.894531 29.25 -29 C 29.25 -27.332031 29.300781 -25.96875 29.40625 -24.90625 L 28.25 -24.90625 C 27.976562 -27.46875 27.644531 -29.375 27.25 -30.625 C 26.851562 -31.875 26.15625 -32.789062 25.15625 -33.375 C 24.15625 -33.957031 22.617188 -34.25 20.546875 -34.25 L 17.84375 -34.25 L 17.84375 -5.796875 C 17.84375 -4.398438 17.976562 -3.382812 18.25 -2.75 C 18.519531 -2.113281 18.988281 -1.675781 19.65625 -1.4375 C 20.320312 -1.207031 21.40625 -1.0625 22.90625 -1 L 22.90625 0 C 21.164062 -0.101562 18.710938 -0.15625 15.546875 -0.15625 C 12.210938 -0.15625 9.75 -0.101562 8.15625 0 L 8.15625 -1 C 9.65625 -1.0625 10.738281 -1.207031 11.40625 -1.4375 C 12.070312 -1.675781 12.535156 -2.113281 12.796875 -2.75 C 13.066406 -3.382812 13.203125 -4.398438 13.203125 -5.796875 L 13.203125 -34.25 L 10.5 -34.25 C 8.4375 -34.25 6.90625 -33.957031 5.90625 -33.375 C 4.90625 -32.789062 4.203125 -31.875 3.796875 -30.625 C 3.398438 -29.375 3.066406 -27.46875 2.796875 -24.90625 L 1.65625 -24.90625 C 1.75 -25.96875 1.796875 -27.332031 1.796875 -29 C 1.796875 -30.894531 1.679688 -33.03125 1.453125 -35.40625 C 4.210938 -35.300781 8.910156 -35.25 15.546875 -35.25 C 22.148438 -35.25 26.832031 -35.300781 29.59375 -35.40625 Z M 29.59375 -35.40625 "/></g></g></g><g fill="#dec2ba" fill-opacity="1"><g transform="translate(96.808065, 200.715865)"><g><path d="M 9.296875 -20.453125 C 10.128906 -22.546875 11.285156 -24.066406 12.765625 -25.015625 C 14.253906 -25.972656 15.929688 -26.453125 17.796875 -26.453125 C 20.128906 -26.453125 21.894531 -25.816406 23.09375 -24.546875 C 23.726562 -23.878906 24.175781 -23.046875 24.4375 -22.046875 C 24.707031 -21.046875 24.84375 -19.695312 24.84375 -18 L 24.84375 -4.65625 C 24.84375 -3.28125 25.125 -2.332031 25.6875 -1.8125 C 26.257812 -1.300781 27.25 -1.046875 28.65625 -1.046875 L 28.65625 0 C 25.582031 -0.132812 23.582031 -0.203125 22.65625 -0.203125 C 21.71875 -0.203125 19.847656 -0.132812 17.046875 0 L 17.046875 -1.046875 C 18.285156 -1.046875 19.144531 -1.300781 19.625 -1.8125 C 20.101562 -2.332031 20.34375 -3.28125 20.34375 -4.65625 L 20.34375 -19.09375 C 20.34375 -20.96875 20.078125 -22.394531 19.546875 -23.375 C 19.015625 -24.351562 17.929688 -24.84375 16.296875 -24.84375 C 14.929688 -24.84375 13.722656 -24.457031 12.671875 -23.6875 C 11.617188 -22.925781 10.789062 -21.851562 10.1875 -20.46875 C 9.59375 -19.09375 9.296875 -17.535156 9.296875 -15.796875 L 9.296875 -4.65625 C 9.296875 -3.28125 9.535156 -2.332031 10.015625 -1.8125 C 10.503906 -1.300781 11.363281 -1.046875 12.59375 -1.046875 L 12.59375 0 C 9.800781 -0.132812 7.9375 -0.203125 7 -0.203125 C 6.0625 -0.203125 4.0625 -0.132812 1 0 L 1 -1.046875 C 2.394531 -1.046875 3.375 -1.300781 3.9375 -1.8125 C 4.507812 -2.332031 4.796875 -3.28125 4.796875 -4.65625 L 4.796875 -33.15625 C 4.796875 -34.6875 4.507812 -35.800781 3.9375 -36.5 C 3.375 -37.195312 2.394531 -37.546875 1 -37.546875 L 1 -38.59375 C 2.0625 -38.5 3.09375 -38.453125 4.09375 -38.453125 C 6.195312 -38.453125 7.929688 -38.6875 9.296875 -39.15625 Z M 9.296875 -20.453125 "/></g></g></g><g fill="#dec2ba" fill-opacity="1"><g transform="translate(124.70352, 200.715865)"><g><path d="M 23.15625 -6 C 22.550781 -4.164062 21.421875 -2.585938 19.765625 -1.265625 C 18.117188 0.046875 16.128906 0.703125 13.796875 0.703125 C 11.429688 0.703125 9.378906 0.160156 7.640625 -0.921875 C 5.910156 -2.003906 4.585938 -3.519531 3.671875 -5.46875 C 2.753906 -7.425781 2.296875 -9.6875 2.296875 -12.25 C 2.296875 -15.144531 2.757812 -17.660156 3.6875 -19.796875 C 4.625 -21.929688 5.941406 -23.570312 7.640625 -24.71875 C 9.347656 -25.875 11.332031 -26.453125 13.59375 -26.453125 C 16.59375 -26.453125 18.898438 -25.539062 20.515625 -23.71875 C 22.140625 -21.90625 22.953125 -19.148438 22.953125 -15.453125 L 7.296875 -15.453125 C 7.203125 -14.515625 7.15625 -13.445312 7.15625 -12.25 C 7.15625 -10.050781 7.507812 -8.132812 8.21875 -6.5 C 8.9375 -4.863281 9.882812 -3.601562 11.0625 -2.71875 C 12.25 -1.84375 13.492188 -1.40625 14.796875 -1.40625 C 16.398438 -1.40625 17.816406 -1.785156 19.046875 -2.546875 C 20.285156 -3.316406 21.320312 -4.601562 22.15625 -6.40625 Z M 13.40625 -25.5 C 11.832031 -25.5 10.476562 -24.734375 9.34375 -23.203125 C 8.21875 -21.671875 7.519531 -19.40625 7.25 -16.40625 L 18.15625 -16.40625 C 18.21875 -19 17.835938 -21.160156 17.015625 -22.890625 C 16.203125 -24.628906 15 -25.5 13.40625 -25.5 Z M 13.40625 -25.5 "/></g></g></g><g fill="#dec2ba" fill-opacity="1"><g transform="translate(148.499614, 200.715865)"><g/></g></g><g fill="#dec2ba" fill-opacity="1"><g transform="translate(159.44769, 200.715865)"><g><path d="M 14.84375 -34.40625 C 13.644531 -34.332031 12.769531 -34.195312 12.21875 -34 C 11.675781 -33.800781 11.300781 -33.414062 11.09375 -32.84375 C 10.894531 -32.28125 10.796875 -31.363281 10.796875 -30.09375 L 10.796875 -5.296875 C 10.796875 -4.035156 10.894531 -3.117188 11.09375 -2.546875 C 11.300781 -1.984375 11.675781 -1.597656 12.21875 -1.390625 C 12.769531 -1.191406 13.644531 -1.0625 14.84375 -1 L 14.84375 0 C 13.3125 -0.101562 11.195312 -0.15625 8.5 -0.15625 C 5.632812 -0.15625 3.5 -0.101562 2.09375 0 L 2.09375 -1 C 3.300781 -1.0625 4.175781 -1.191406 4.71875 -1.390625 C 5.269531 -1.597656 5.644531 -1.984375 5.84375 -2.546875 C 6.050781 -3.117188 6.15625 -4.035156 6.15625 -5.296875 L 6.15625 -30.09375 C 6.15625 -31.363281 6.050781 -32.28125 5.84375 -32.84375 C 5.644531 -33.414062 5.269531 -33.800781 4.71875 -34 C 4.175781 -34.195312 3.300781 -34.332031 2.09375 -34.40625 L 2.09375 -35.40625 C 3.5 -35.300781 5.632812 -35.25 8.5 -35.25 C 11.164062 -35.25 13.28125 -35.300781 14.84375 -35.40625 Z M 14.84375 -34.40625 "/></g></g></g><g fill="#dec2ba" fill-opacity="1"><g transform="translate(174.895067, 200.715865)"><g><path d="M 18.25 -26.453125 C 20.582031 -26.453125 22.347656 -25.816406 23.546875 -24.546875 C 24.179688 -23.878906 24.628906 -23.046875 24.890625 -22.046875 C 25.160156 -21.046875 25.296875 -19.695312 25.296875 -18 L 25.296875 -4.65625 C 25.296875 -3.28125 25.578125 -2.332031 26.140625 -1.8125 C 26.710938 -1.300781 27.695312 -1.046875 29.09375 -1.046875 L 29.09375 0 C 26.03125 -0.132812 24.03125 -0.203125 23.09375 -0.203125 C 22.164062 -0.203125 20.300781 -0.132812 17.5 0 L 17.5 -1.046875 C 18.726562 -1.046875 19.582031 -1.300781 20.0625 -1.8125 C 20.550781 -2.332031 20.796875 -3.28125 20.796875 -4.65625 L 20.796875 -19.09375 C 20.796875 -20.96875 20.53125 -22.394531 20 -23.375 C 19.46875 -24.351562 18.382812 -24.84375 16.75 -24.84375 C 15.382812 -24.84375 14.164062 -24.441406 13.09375 -23.640625 C 12.03125 -22.847656 11.207031 -21.757812 10.625 -20.375 C 10.039062 -18.988281 9.75 -17.445312 9.75 -15.75 L 9.75 -4.65625 C 9.75 -3.28125 9.988281 -2.332031 10.46875 -1.8125 C 10.957031 -1.300781 11.816406 -1.046875 13.046875 -1.046875 L 13.046875 0 C 10.242188 -0.132812 8.378906 -0.203125 7.453125 -0.203125 C 6.515625 -0.203125 4.515625 -0.132812 1.453125 0 L 1.453125 -1.046875 C 2.847656 -1.046875 3.828125 -1.300781 4.390625 -1.8125 C 4.960938 -2.332031 5.25 -3.28125 5.25 -4.65625 L 5.25 -20.296875 C 5.25 -21.828125 4.960938 -22.941406 4.390625 -23.640625 C 3.828125 -24.347656 2.847656 -24.703125 1.453125 -24.703125 L 1.453125 -25.75 C 2.515625 -25.644531 3.546875 -25.59375 4.546875 -25.59375 C 6.648438 -25.59375 8.382812 -25.828125 9.75 -26.296875 L 9.75 -20.40625 C 10.582031 -22.53125 11.738281 -24.066406 13.21875 -25.015625 C 14.707031 -25.972656 16.382812 -26.453125 18.25 -26.453125 Z M 18.25 -26.453125 "/></g></g></g><g fill="#dec2ba" fill-opacity="1"><g transform="translate(203.240444, 200.715865)"><g><path d="M 10.40625 -26.453125 C 11.601562 -26.453125 12.664062 -26.265625 13.59375 -25.890625 C 14.53125 -25.523438 15.28125 -25.09375 15.84375 -24.59375 C 16.21875 -24.332031 16.519531 -24.203125 16.75 -24.203125 C 17.351562 -24.203125 17.71875 -24.9375 17.84375 -26.40625 L 19 -26.40625 C 18.863281 -24.769531 18.796875 -21.9375 18.796875 -17.90625 L 17.65625 -17.90625 C 17.28125 -20.101562 16.566406 -21.914062 15.515625 -23.34375 C 14.472656 -24.78125 12.914062 -25.5 10.84375 -25.5 C 9.644531 -25.5 8.660156 -25.15625 7.890625 -24.46875 C 7.128906 -23.789062 6.75 -22.851562 6.75 -21.65625 C 6.75 -20.488281 7.148438 -19.507812 7.953125 -18.71875 C 8.753906 -17.9375 10.035156 -17 11.796875 -15.90625 C 12.097656 -15.738281 12.550781 -15.453125 13.15625 -15.046875 C 14.6875 -14.046875 15.914062 -13.160156 16.84375 -12.390625 C 17.78125 -11.628906 18.539062 -10.75 19.125 -9.75 C 19.707031 -8.75 20 -7.597656 20 -6.296875 C 20 -4.097656 19.171875 -2.378906 17.515625 -1.140625 C 15.867188 0.0859375 13.847656 0.703125 11.453125 0.703125 C 9.953125 0.703125 8.632812 0.46875 7.5 0 C 6.769531 -0.363281 6.085938 -0.8125 5.453125 -1.34375 C 5.316406 -1.476562 5.164062 -1.546875 5 -1.546875 C 4.769531 -1.546875 4.5625 -1.378906 4.375 -1.046875 C 4.1875 -0.710938 4.046875 -0.25 3.953125 0.34375 L 2.796875 0.34375 C 2.929688 -1.550781 3 -4.882812 3 -9.65625 L 4.15625 -9.65625 C 4.519531 -6.519531 5.179688 -4.175781 6.140625 -2.625 C 7.109375 -1.070312 8.757812 -0.296875 11.09375 -0.296875 C 12.257812 -0.296875 13.289062 -0.675781 14.1875 -1.4375 C 15.09375 -2.207031 15.546875 -3.410156 15.546875 -5.046875 C 15.546875 -6.347656 15.101562 -7.445312 14.21875 -8.34375 C 13.34375 -9.25 11.90625 -10.332031 9.90625 -11.59375 C 8.269531 -12.632812 7.007812 -13.488281 6.125 -14.15625 C 5.238281 -14.820312 4.492188 -15.632812 3.890625 -16.59375 C 3.296875 -17.5625 3 -18.695312 3 -20 C 3 -22.101562 3.695312 -23.703125 5.09375 -24.796875 C 6.5 -25.898438 8.269531 -26.453125 10.40625 -26.453125 Z M 10.40625 -26.453125 "/></g></g></g><g fill="#dec2ba" fill-opacity="1"><g transform="translate(224.086989, 200.715865)"><g><path d="M 7.140625 -38.25 C 8.003906 -38.25 8.753906 -37.929688 9.390625 -37.296875 C 10.023438 -36.660156 10.34375 -35.910156 10.34375 -35.046875 C 10.34375 -34.179688 10.023438 -33.429688 9.390625 -32.796875 C 8.753906 -32.160156 8.003906 -31.84375 7.140625 -31.84375 C 6.273438 -31.84375 5.523438 -32.160156 4.890625 -32.796875 C 4.253906 -33.429688 3.9375 -34.179688 3.9375 -35.046875 C 3.9375 -35.910156 4.253906 -36.660156 4.890625 -37.296875 C 5.523438 -37.929688 6.273438 -38.25 7.140625 -38.25 Z M 9.75 -4.65625 C 9.75 -3.28125 10.03125 -2.332031 10.59375 -1.8125 C 11.164062 -1.300781 12.148438 -1.046875 13.546875 -1.046875 L 13.546875 0 C 10.484375 -0.132812 8.46875 -0.203125 7.5 -0.203125 C 6.53125 -0.203125 4.515625 -0.132812 1.453125 0 L 1.453125 -1.046875 C 2.847656 -1.046875 3.828125 -1.300781 4.390625 -1.8125 C 4.960938 -2.332031 5.25 -3.28125 5.25 -4.65625 L 5.25 -20.296875 C 5.25 -21.828125 4.960938 -22.941406 4.390625 -23.640625 C 3.828125 -24.347656 2.847656 -24.703125 1.453125 -24.703125 L 1.453125 -25.75 C 2.515625 -25.644531 3.546875 -25.59375 4.546875 -25.59375 C 6.648438 -25.59375 8.382812 -25.828125 9.75 -26.296875 Z M 9.75 -4.65625 "/></g></g></g><g fill="#dec2ba" fill-opacity="1"><g transform="translate(237.234716, 200.715865)"><g><path d="M 23.546875 -21.25 C 22.953125 -21.25 22.445312 -21.445312 22.03125 -21.84375 C 21.613281 -22.25 21.40625 -22.832031 21.40625 -23.59375 C 21.40625 -24.257812 21.570312 -25.03125 21.90625 -25.90625 C 21.03125 -25.53125 20.34375 -25.117188 19.84375 -24.671875 C 19.34375 -24.222656 18.894531 -23.664062 18.5 -23 C 19.269531 -21.832031 19.65625 -20.347656 19.65625 -18.546875 C 19.65625 -15.910156 18.851562 -13.9375 17.25 -12.625 C 15.644531 -11.3125 13.53125 -10.65625 10.90625 -10.65625 L 10.84375 -10.65625 C 9.75 -10.019531 8.914062 -9.429688 8.34375 -8.890625 C 7.78125 -8.359375 7.5 -7.757812 7.5 -7.09375 C 7.5 -6.03125 8.300781 -5.5 9.90625 -5.5 L 16.15625 -5.5 C 18.414062 -5.5 20.285156 -5.003906 21.765625 -4.015625 C 23.253906 -3.035156 24 -1.5625 24 0.40625 C 24 2 23.484375 3.476562 22.453125 4.84375 C 21.421875 6.21875 19.90625 7.320312 17.90625 8.15625 C 15.90625 8.988281 13.488281 9.40625 10.65625 9.40625 C 7.75 9.40625 5.320312 8.960938 3.375 8.078125 C 1.425781 7.191406 0.453125 5.882812 0.453125 4.15625 C 0.453125 3.019531 0.910156 2.035156 1.828125 1.203125 C 2.742188 0.367188 4.019531 -0.28125 5.65625 -0.75 L 5.953125 0.046875 C 5.210938 0.285156 4.625 0.753906 4.1875 1.453125 C 3.757812 2.148438 3.546875 2.929688 3.546875 3.796875 C 3.546875 5.328125 4.238281 6.5 5.625 7.3125 C 7.007812 8.132812 8.867188 8.546875 11.203125 8.546875 C 13.765625 8.546875 15.960938 8.050781 17.796875 7.0625 C 19.628906 6.082031 20.546875 4.5625 20.546875 2.5 C 20.546875 1.300781 20.117188 0.367188 19.265625 -0.296875 C 18.421875 -0.960938 16.914062 -1.296875 14.75 -1.296875 L 11.046875 -1.296875 C 9.078125 -1.296875 7.5 -1.546875 6.3125 -2.046875 C 5.132812 -2.546875 4.546875 -3.546875 4.546875 -5.046875 C 4.546875 -6.078125 4.921875 -7.0625 5.671875 -8 C 6.421875 -8.9375 7.664062 -9.851562 9.40625 -10.75 C 7.195312 -10.976562 5.4375 -11.742188 4.125 -13.046875 C 2.8125 -14.347656 2.15625 -16.179688 2.15625 -18.546875 C 2.15625 -21.179688 2.953125 -23.15625 4.546875 -24.46875 C 6.148438 -25.789062 8.269531 -26.453125 10.90625 -26.453125 C 14.03125 -26.453125 16.34375 -25.582031 17.84375 -23.84375 C 18.476562 -24.75 19.28125 -25.492188 20.25 -26.078125 C 21.21875 -26.660156 22.1875 -26.953125 23.15625 -26.953125 C 24.019531 -26.953125 24.71875 -26.703125 25.25 -26.203125 C 25.78125 -25.703125 26.046875 -24.984375 26.046875 -24.046875 C 26.046875 -23.117188 25.785156 -22.421875 25.265625 -21.953125 C 24.753906 -21.484375 24.179688 -21.25 23.546875 -21.25 Z M 10.90625 -11.546875 C 12.238281 -11.546875 13.242188 -12.070312 13.921875 -13.125 C 14.609375 -14.175781 14.953125 -15.984375 14.953125 -18.546875 C 14.953125 -21.117188 14.609375 -22.925781 13.921875 -23.96875 C 13.242188 -25.019531 12.238281 -25.546875 10.90625 -25.546875 C 9.570312 -25.546875 8.5625 -25.019531 7.875 -23.96875 C 7.1875 -22.925781 6.84375 -21.117188 6.84375 -18.546875 C 6.84375 -15.984375 7.1875 -14.175781 7.875 -13.125 C 8.5625 -12.070312 9.570312 -11.546875 10.90625 -11.546875 Z M 10.90625 -11.546875 "/></g></g></g><g fill="#dec2ba" fill-opacity="1"><g transform="translate(262.130627, 200.715865)"><g><path d="M 9.296875 -20.453125 C 10.128906 -22.546875 11.285156 -24.066406 12.765625 -25.015625 C 14.253906 -25.972656 15.929688 -26.453125 17.796875 -26.453125 C 20.128906 -26.453125 21.894531 -25.816406 23.09375 -24.546875 C 23.726562 -23.878906 24.175781 -23.046875 24.4375 -22.046875 C 24.707031 -21.046875 24.84375 -19.695312 24.84375 -18 L 24.84375 -4.65625 C 24.84375 -3.28125 25.125 -2.332031 25.6875 -1.8125 C 26.257812 -1.300781 27.25 -1.046875 28.65625 -1.046875 L 28.65625 0 C 25.582031 -0.132812 23.582031 -0.203125 22.65625 -0.203125 C 21.71875 -0.203125 19.847656 -0.132812 17.046875 0 L 17.046875 -1.046875 C 18.285156 -1.046875 19.144531 -1.300781 19.625 -1.8125 C 20.101562 -2.332031 20.34375 -3.28125 20.34375 -4.65625 L 20.34375 -19.09375 C 20.34375 -20.96875 20.078125 -22.394531 19.546875 -23.375 C 19.015625 -24.351562 17.929688 -24.84375 16.296875 -24.84375 C 14.929688 -24.84375 13.722656 -24.457031 12.671875 -23.6875 C 11.617188 -22.925781 10.789062 -21.851562 10.1875 -20.46875 C 9.59375 -19.09375 9.296875 -17.535156 9.296875 -15.796875 L 9.296875 -4.65625 C 9.296875 -3.28125 9.535156 -2.332031 10.015625 -1.8125 C 10.503906 -1.300781 11.363281 -1.046875 12.59375 -1.046875 L 12.59375 0 C 9.800781 -0.132812 7.9375 -0.203125 7 -0.203125 C 6.0625 -0.203125 4.0625 -0.132812 1 0 L 1 -1.046875 C 2.394531 -1.046875 3.375 -1.300781 3.9375 -1.8125 C 4.507812 -2.332031 4.796875 -3.28125 4.796875 -4.65625 L 4.796875 -33.15625 C 4.796875 -34.6875 4.507812 -35.800781 3.9375 -36.5 C 3.375 -37.195312 2.394531 -37.546875 1 -37.546875 L 1 -38.59375 C 2.0625 -38.5 3.09375 -38.453125 4.09375 -38.453125 C 6.195312 -38.453125 7.929688 -38.6875 9.296875 -39.15625 Z M 9.296875 -20.453125 "/></g></g></g><g fill="#dec2ba" fill-opacity="1"><g transform="translate(290.026079, 200.715865)"><g><path d="M 9.5 -25.703125 L 16.90625 -25.703125 L 16.90625 -24.703125 L 9.5 -24.703125 L 9.5 -5.34375 C 9.5 -3.84375 9.773438 -2.757812 10.328125 -2.09375 C 10.878906 -1.425781 11.671875 -1.09375 12.703125 -1.09375 C 13.734375 -1.09375 14.613281 -1.507812 15.34375 -2.34375 C 16.082031 -3.175781 16.703125 -4.546875 17.203125 -6.453125 L 18.203125 -6.203125 C 17.367188 -1.597656 15.203125 0.703125 11.703125 0.703125 C 10.566406 0.703125 9.628906 0.566406 8.890625 0.296875 C 8.160156 0.0351562 7.515625 -0.378906 6.953125 -0.953125 C 6.210938 -1.679688 5.703125 -2.578125 5.421875 -3.640625 C 5.140625 -4.710938 5 -6.148438 5 -7.953125 L 5 -24.703125 L 0.203125 -24.703125 L 0.203125 -25.703125 L 5 -25.703125 L 5 -33.34375 C 6.863281 -33.414062 8.363281 -33.648438 9.5 -34.046875 Z M 9.5 -25.703125 "/></g></g></g><g clip-path="url(#59fed198d7)"><path fill="#060606" d="M 57.050781 221.089844 L 317.207031 221.089844 L 317.207031 245.699219 L 57.050781 245.699219 Z M 57.050781 221.089844 " fill-opacity="1" fill-rule="nonzero"/></g><g fill="#fbfaf9" fill-opacity="1"><g transform="translate(78.484364, 237.694204)"><g><path d="M 4.859375 -2.984375 L 4.859375 0 L 3.359375 0 L 3.359375 -2.9375 L 0.015625 -8.984375 L 1.546875 -8.984375 L 4.109375 -4.609375 L 6.625 -8.984375 L 8.15625 -8.984375 Z M 4.859375 -2.984375 "/></g></g></g><g fill="#fbfaf9" fill-opacity="1"><g transform="translate(93.707987, 237.694204)"><g><path d="M 1.8125 -7.703125 C 2.726562 -8.578125 3.851562 -9.015625 5.1875 -9.015625 C 6.53125 -9.015625 7.660156 -8.578125 8.578125 -7.703125 C 9.492188 -6.835938 9.953125 -5.765625 9.953125 -4.484375 C 9.953125 -3.203125 9.492188 -2.125 8.578125 -1.25 C 7.660156 -0.375 6.53125 0.0625 5.1875 0.0625 C 3.851562 0.0625 2.726562 -0.375 1.8125 -1.25 C 0.894531 -2.125 0.4375 -3.203125 0.4375 -4.484375 C 0.4375 -5.765625 0.894531 -6.835938 1.8125 -7.703125 Z M 5.203125 -7.65625 C 4.316406 -7.65625 3.554688 -7.347656 2.921875 -6.734375 C 2.285156 -6.128906 1.96875 -5.378906 1.96875 -4.484375 C 1.96875 -3.597656 2.285156 -2.84375 2.921875 -2.21875 C 3.566406 -1.601562 4.328125 -1.296875 5.203125 -1.296875 C 6.085938 -1.296875 6.84375 -1.601562 7.46875 -2.21875 C 8.09375 -2.84375 8.40625 -3.597656 8.40625 -4.484375 C 8.40625 -5.378906 8.09375 -6.128906 7.46875 -6.734375 C 6.84375 -7.347656 6.085938 -7.65625 5.203125 -7.65625 Z M 5.203125 -7.65625 "/></g></g></g><g fill="#fbfaf9" fill-opacity="1"><g transform="translate(111.149522, 237.694204)"><g><path d="M 8.8125 -8.984375 L 8.8125 -3.71875 C 8.8125 -2.550781 8.460938 -1.628906 7.765625 -0.953125 C 7.078125 -0.273438 6.125 0.0625 4.90625 0.0625 C 3.695312 0.0625 2.742188 -0.273438 2.046875 -0.953125 C 1.347656 -1.628906 1 -2.550781 1 -3.71875 L 1 -8.984375 L 2.515625 -8.984375 L 2.515625 -3.71875 C 2.515625 -2.96875 2.726562 -2.375 3.15625 -1.9375 C 3.59375 -1.507812 4.179688 -1.296875 4.921875 -1.296875 C 5.660156 -1.296875 6.238281 -1.507812 6.65625 -1.9375 C 7.082031 -2.363281 7.296875 -2.957031 7.296875 -3.71875 L 7.296875 -8.984375 Z M 8.8125 -8.984375 "/></g></g></g><g fill="#fbfaf9" fill-opacity="1"><g transform="translate(128.001321, 237.694204)"><g><path d="M 6.875 0 L 5.234375 -2.71875 C 5.148438 -2.707031 5.015625 -2.703125 4.828125 -2.703125 L 2.6875 -2.703125 L 2.6875 0 L 1.1875 0 L 1.1875 -8.984375 L 4.828125 -8.984375 C 5.972656 -8.984375 6.859375 -8.710938 7.484375 -8.171875 C 8.117188 -7.640625 8.4375 -6.882812 8.4375 -5.90625 C 8.4375 -5.195312 8.273438 -4.59375 7.953125 -4.09375 C 7.640625 -3.59375 7.179688 -3.226562 6.578125 -3 L 8.59375 0 Z M 2.6875 -4.0625 L 4.828125 -4.0625 C 6.273438 -4.0625 7 -4.664062 7 -5.875 C 7 -7.039062 6.273438 -7.625 4.828125 -7.625 L 2.6875 -7.625 Z M 2.6875 -4.0625 "/></g></g></g><g fill="#fbfaf9" fill-opacity="1"><g transform="translate(144.32749, 237.694204)"><g/></g></g><g fill="#fbfaf9" fill-opacity="1"><g transform="translate(154.692249, 237.694204)"><g><path d="M 1.1875 -8.984375 L 4.859375 -8.984375 C 6.203125 -8.984375 7.3125 -8.554688 8.1875 -7.703125 C 9.0625 -6.859375 9.5 -5.785156 9.5 -4.484375 C 9.5 -3.191406 9.054688 -2.117188 8.171875 -1.265625 C 7.296875 -0.421875 6.179688 0 4.828125 0 L 1.1875 0 Z M 2.6875 -7.625 L 2.6875 -1.359375 L 4.90625 -1.359375 C 5.78125 -1.359375 6.507812 -1.648438 7.09375 -2.234375 C 7.6875 -2.828125 7.984375 -3.578125 7.984375 -4.484375 C 7.984375 -5.390625 7.679688 -6.140625 7.078125 -6.734375 C 6.472656 -7.328125 5.726562 -7.625 4.84375 -7.625 Z M 2.6875 -7.625 "/></g></g></g><g fill="#fbfaf9" fill-opacity="1"><g transform="translate(171.685071, 237.694204)"><g><path d="M 6.984375 -2.03125 L 2.453125 -2.03125 L 1.59375 0 L 0.015625 0 L 3.984375 -8.984375 L 5.53125 -8.984375 L 9.453125 0 L 7.84375 0 Z M 6.40625 -3.375 L 4.703125 -7.359375 L 3.015625 -3.375 Z M 6.40625 -3.375 "/></g></g></g><g fill="#fbfaf9" fill-opacity="1"><g transform="translate(188.203546, 237.694204)"><g><path d="M 2.6875 0 L 1.1875 0 L 1.1875 -8.984375 L 2.6875 -8.984375 Z M 2.6875 0 "/></g></g></g><g fill="#fbfaf9" fill-opacity="1"><g transform="translate(199.132401, 237.694204)"><g><path d="M 2.6875 -1.375 L 6.578125 -1.375 L 6.578125 0 L 1.1875 0 L 1.1875 -8.984375 L 2.6875 -8.984375 Z M 2.6875 -1.375 "/></g></g></g><g fill="#fbfaf9" fill-opacity="1"><g transform="translate(213.035553, 237.694204)"><g><path d="M 4.859375 -2.984375 L 4.859375 0 L 3.359375 0 L 3.359375 -2.9375 L 0.015625 -8.984375 L 1.546875 -8.984375 L 4.109375 -4.609375 L 6.625 -8.984375 L 8.15625 -8.984375 Z M 4.859375 -2.984375 "/></g></g></g><g fill="#fbfaf9" fill-opacity="1"><g transform="translate(228.259181, 237.694204)"><g/></g></g><g fill="#fbfaf9" fill-opacity="1"><g transform="translate(238.623945, 237.694204)"><g><path d="M 1.1875 -8.984375 L 4.859375 -8.984375 C 6.203125 -8.984375 7.3125 -8.554688 8.1875 -7.703125 C 9.0625 -6.859375 9.5 -5.785156 9.5 -4.484375 C 9.5 -3.191406 9.054688 -2.117188 8.171875 -1.265625 C 7.296875 -0.421875 6.179688 0 4.828125 0 L 1.1875 0 Z M 2.6875 -7.625 L 2.6875 -1.359375 L 4.90625 -1.359375 C 5.78125 -1.359375 6.507812 -1.648438 7.09375 -2.234375 C 7.6875 -2.828125 7.984375 -3.578125 7.984375 -4.484375 C 7.984375 -5.390625 7.679688 -6.140625 7.078125 -6.734375 C 6.472656 -7.328125 5.726562 -7.625 4.84375 -7.625 Z M 2.6875 -7.625 "/></g></g></g><g fill="#fbfaf9" fill-opacity="1"><g transform="translate(255.616772, 237.694204)"><g><path d="M 1.8125 -7.703125 C 2.726562 -8.578125 3.851562 -9.015625 5.1875 -9.015625 C 6.53125 -9.015625 7.660156 -8.578125 8.578125 -7.703125 C 9.492188 -6.835938 9.953125 -5.765625 9.953125 -4.484375 C 9.953125 -3.203125 9.492188 -2.125 8.578125 -1.25 C 7.660156 -0.375 6.53125 0.0625 5.1875 0.0625 C 3.851562 0.0625 2.726562 -0.375 1.8125 -1.25 C 0.894531 -2.125 0.4375 -3.203125 0.4375 -4.484375 C 0.4375 -5.765625 0.894531 -6.835938 1.8125 -7.703125 Z M 5.203125 -7.65625 C 4.316406 -7.65625 3.554688 -7.347656 2.921875 -6.734375 C 2.285156 -6.128906 1.96875 -5.378906 1.96875 -4.484375 C 1.96875 -3.597656 2.285156 -2.84375 2.921875 -2.21875 C 3.566406 -1.601562 4.328125 -1.296875 5.203125 -1.296875 C 6.085938 -1.296875 6.84375 -1.601562 7.46875 -2.21875 C 8.09375 -2.84375 8.40625 -3.597656 8.40625 -4.484375 C 8.40625 -5.378906 8.09375 -6.128906 7.46875 -6.734375 C 6.84375 -7.347656 6.085938 -7.65625 5.203125 -7.65625 Z M 5.203125 -7.65625 "/></g></g></g><g fill="#fbfaf9" fill-opacity="1"><g transform="translate(273.058311, 237.694204)"><g><path d="M 4.125 -9.046875 C 5.289062 -9.046875 6.34375 -8.738281 7.28125 -8.125 L 6.640625 -6.78125 C 5.722656 -7.34375 4.847656 -7.625 4.015625 -7.625 C 3.554688 -7.625 3.195312 -7.539062 2.9375 -7.375 C 2.675781 -7.207031 2.546875 -6.972656 2.546875 -6.671875 C 2.546875 -6.378906 2.664062 -6.128906 2.90625 -5.921875 C 3.144531 -5.710938 3.441406 -5.554688 3.796875 -5.453125 C 4.160156 -5.359375 4.550781 -5.234375 4.96875 -5.078125 C 5.394531 -4.929688 5.785156 -4.773438 6.140625 -4.609375 C 6.503906 -4.441406 6.800781 -4.179688 7.03125 -3.828125 C 7.269531 -3.472656 7.390625 -3.046875 7.390625 -2.546875 C 7.390625 -1.753906 7.070312 -1.125 6.4375 -0.65625 C 5.8125 -0.1875 5 0.046875 4 0.046875 C 3.3125 0.046875 2.644531 -0.078125 2 -0.328125 C 1.363281 -0.585938 0.804688 -0.9375 0.328125 -1.375 L 0.984375 -2.6875 C 1.441406 -2.257812 1.941406 -1.929688 2.484375 -1.703125 C 3.023438 -1.484375 3.539062 -1.375 4.03125 -1.375 C 4.5625 -1.375 4.972656 -1.46875 5.265625 -1.65625 C 5.554688 -1.851562 5.703125 -2.125 5.703125 -2.46875 C 5.703125 -2.769531 5.582031 -3.023438 5.34375 -3.234375 C 5.101562 -3.441406 4.800781 -3.59375 4.4375 -3.6875 C 4.082031 -3.789062 3.695312 -3.910156 3.28125 -4.046875 C 2.863281 -4.191406 2.472656 -4.34375 2.109375 -4.5 C 1.753906 -4.664062 1.457031 -4.921875 1.21875 -5.265625 C 0.976562 -5.617188 0.859375 -6.046875 0.859375 -6.546875 C 0.859375 -7.304688 1.15625 -7.910156 1.75 -8.359375 C 2.351562 -8.816406 3.144531 -9.046875 4.125 -9.046875 Z M 4.125 -9.046875 "/></g></g></g><g fill="#fbfaf9" fill-opacity="1"><g transform="translate(288.089644, 237.694204)"><g><path d="M 7.59375 -7.625 L 2.6875 -7.625 L 2.6875 -5.203125 L 7.078125 -5.203125 L 7.078125 -3.828125 L 2.6875 -3.828125 L 2.6875 -1.359375 L 7.75 -1.359375 L 7.75 0 L 1.1875 0 L 1.1875 -8.984375 L 7.59375 -8.984375 Z M 7.59375 -7.625 "/></g></g></g><g fill="#fbfaf9" fill-opacity="1"><g transform="translate(135.882797, 254.944202)"><g><path d="M 1.8125 -7.703125 C 2.726562 -8.578125 3.851562 -9.015625 5.1875 -9.015625 C 6.53125 -9.015625 7.660156 -8.578125 8.578125 -7.703125 C 9.492188 -6.835938 9.953125 -5.765625 9.953125 -4.484375 C 9.953125 -3.203125 9.492188 -2.125 8.578125 -1.25 C 7.660156 -0.375 6.53125 0.0625 5.1875 0.0625 C 3.851562 0.0625 2.726562 -0.375 1.8125 -1.25 C 0.894531 -2.125 0.4375 -3.203125 0.4375 -4.484375 C 0.4375 -5.765625 0.894531 -6.835938 1.8125 -7.703125 Z M 5.203125 -7.65625 C 4.316406 -7.65625 3.554688 -7.347656 2.921875 -6.734375 C 2.285156 -6.128906 1.96875 -5.378906 1.96875 -4.484375 C 1.96875 -3.597656 2.285156 -2.84375 2.921875 -2.21875 C 3.566406 -1.601562 4.328125 -1.296875 5.203125 -1.296875 C 6.085938 -1.296875 6.84375 -1.601562 7.46875 -2.21875 C 8.09375 -2.84375 8.40625 -3.597656 8.40625 -4.484375 C 8.40625 -5.378906 8.09375 -6.128906 7.46875 -6.734375 C 6.84375 -7.347656 6.085938 -7.65625 5.203125 -7.65625 Z M 5.203125 -7.65625 "/></g></g></g><g fill="#fbfaf9" fill-opacity="1"><g transform="translate(153.324332, 254.944202)"><g><path d="M 7.203125 -7.625 L 2.6875 -7.625 L 2.6875 -5.03125 L 6.765625 -5.03125 L 6.765625 -3.6875 L 2.6875 -3.6875 L 2.6875 0 L 1.1875 0 L 1.1875 -8.984375 L 7.203125 -8.984375 Z M 7.203125 -7.625 "/></g></g></g><g fill="#fbfaf9" fill-opacity="1"><g transform="translate(167.753106, 254.944202)"><g/></g></g><g fill="#fbfaf9" fill-opacity="1"><g transform="translate(178.117868, 254.944202)"><g><path d="M 8.96875 0 L 7.484375 0 L 2.6875 -6.4375 L 2.6875 0 L 1.1875 0 L 1.1875 -8.984375 L 2.671875 -8.984375 L 7.484375 -2.53125 L 7.484375 -8.984375 L 8.96875 -8.984375 Z M 8.96875 0 "/></g></g></g><g fill="#fbfaf9" fill-opacity="1"><g transform="translate(195.328631, 254.944202)"><g><path d="M 7.59375 -7.625 L 2.6875 -7.625 L 2.6875 -5.203125 L 7.078125 -5.203125 L 7.078125 -3.828125 L 2.6875 -3.828125 L 2.6875 -1.359375 L 7.75 -1.359375 L 7.75 0 L 1.1875 0 L 1.1875 -8.984375 L 7.59375 -8.984375 Z M 7.59375 -7.625 "/></g></g></g><g fill="#fbfaf9" fill-opacity="1"><g transform="translate(210.795841, 254.944202)"><g><path d="M 10.421875 0 L 8.859375 0 L 6.734375 -7 L 4.578125 0 L 3.015625 0 L 0.03125 -8.984375 L 1.671875 -8.984375 L 3.84375 -1.6875 L 6.015625 -8.96875 L 7.5 -8.984375 L 9.6875 -1.6875 L 11.859375 -8.984375 L 13.421875 -8.984375 Z M 10.421875 0 "/></g></g></g><g fill="#fbfaf9" fill-opacity="1"><g transform="translate(231.134743, 254.944202)"><g><path d="M 4.125 -9.046875 C 5.289062 -9.046875 6.34375 -8.738281 7.28125 -8.125 L 6.640625 -6.78125 C 5.722656 -7.34375 4.847656 -7.625 4.015625 -7.625 C 3.554688 -7.625 3.195312 -7.539062 2.9375 -7.375 C 2.675781 -7.207031 2.546875 -6.972656 2.546875 -6.671875 C 2.546875 -6.378906 2.664062 -6.128906 2.90625 -5.921875 C 3.144531 -5.710938 3.441406 -5.554688 3.796875 -5.453125 C 4.160156 -5.359375 4.550781 -5.234375 4.96875 -5.078125 C 5.394531 -4.929688 5.785156 -4.773438 6.140625 -4.609375 C 6.503906 -4.441406 6.800781 -4.179688 7.03125 -3.828125 C 7.269531 -3.472656 7.390625 -3.046875 7.390625 -2.546875 C 7.390625 -1.753906 7.070312 -1.125 6.4375 -0.65625 C 5.8125 -0.1875 5 0.046875 4 0.046875 C 3.3125 0.046875 2.644531 -0.078125 2 -0.328125 C 1.363281 -0.585938 0.804688 -0.9375 0.328125 -1.375 L 0.984375 -2.6875 C 1.441406 -2.257812 1.941406 -1.929688 2.484375 -1.703125 C 3.023438 -1.484375 3.539062 -1.375 4.03125 -1.375 C 4.5625 -1.375 4.972656 -1.46875 5.265625 -1.65625 C 5.554688 -1.851562 5.703125 -2.125 5.703125 -2.46875 C 5.703125 -2.769531 5.582031 -3.023438 5.34375 -3.234375 C 5.101562 -3.441406 4.800781 -3.59375 4.4375 -3.6875 C 4.082031 -3.789062 3.695312 -3.910156 3.28125 -4.046875 C 2.863281 -4.191406 2.472656 -4.34375 2.109375 -4.5 C 1.753906 -4.664062 1.457031 -4.921875 1.21875 -5.265625 C 0.976562 -5.617188 0.859375 -6.046875 0.859375 -6.546875 C 0.859375 -7.304688 1.15625 -7.910156 1.75 -8.359375 C 2.351562 -8.816406 3.144531 -9.046875 4.125 -9.046875 Z M 4.125 -9.046875 "/></g></g></g></svg>