<svg xmlns="http://www.w3.org/2000/svg" xmlns:xlink="http://www.w3.org/1999/xlink" width="500" zoomAndPan="magnify" viewBox="0 0 375 374.999991" height="500" preserveAspectRatio="xMidYMid meet" version="1.0"><defs><g/><clipPath id="a97285fbf5"><path d="M 18.757812 129.089844 L 356.242188 129.089844 L 356.242188 234.089844 L 18.757812 234.089844 Z M 18.757812 129.089844 " clip-rule="nonzero"/></clipPath><clipPath id="a6b66bac14"><path d="M 57.050781 221.089844 L 317.949219 221.089844 L 317.949219 245.910156 L 57.050781 245.910156 Z M 57.050781 221.089844 " clip-rule="nonzero"/></clipPath></defs><g clip-path="url(#a97285fbf5)"><path stroke-linecap="butt" transform="matrix(0.75, 0, 0, 0.751342, 18.759267, 129.09087)" fill="none" stroke-linejoin="miter" d="M -0.00193873 -0.00136579 L 449.977257 -0.00136579 L 449.977257 139.748641 L -0.00193873 139.748641 L -0.00193873 -0.00136579 " stroke="#060606" stroke-width="2" stroke-opacity="1" stroke-miterlimit="4"/></g><g fill="#060606" fill-opacity="1"><g transform="translate(62.692552, 200.715865)"><g><path d="M 32.09375 -35.40625 C 31.863281 -32.238281 31.75 -29.40625 31.75 -26.90625 C 31.75 -25.332031 31.800781 -24.0625 31.90625 -23.09375 L 30.75 -23.09375 C 29.945312 -27.195312 28.851562 -30.082031 27.46875 -31.75 C 26.09375 -33.414062 24.203125 -34.25 21.796875 -34.25 L 20.65625 -34.25 L 20.65625 -5.703125 C 20.65625 -4.296875 20.796875 -3.273438 21.078125 -2.640625 C 21.359375 -2.015625 21.859375 -1.59375 22.578125 -1.375 C 23.296875 -1.15625 24.4375 -1.03125 26 -1 L 26 0 C 21.800781 -0.101562 18.632812 -0.15625 16.5 -0.15625 C 14.394531 -0.15625 11.34375 -0.101562 7.34375 0 L 7.34375 -1 C 8.914062 -1.03125 10.054688 -1.15625 10.765625 -1.375 C 11.484375 -1.59375 11.984375 -2.015625 12.265625 -2.640625 C 12.554688 -3.273438 12.703125 -4.296875 12.703125 -5.703125 L 12.703125 -34.25 L 11.59375 -34.25 C 10 -34.25 8.640625 -33.898438 7.515625 -33.203125 C 6.398438 -32.503906 5.441406 -31.34375 4.640625 -29.71875 C 3.847656 -28.101562 3.164062 -25.894531 2.59375 -23.09375 L 1.453125 -23.09375 C 1.546875 -24.0625 1.59375 -25.332031 1.59375 -26.90625 C 1.59375 -29.40625 1.476562 -32.238281 1.25 -35.40625 C 4.28125 -35.300781 9.429688 -35.25 16.703125 -35.25 C 23.960938 -35.25 29.09375 -35.300781 32.09375 -35.40625 Z M 32.09375 -35.40625 "/></g></g></g><g fill="#060606" fill-opacity="1"><g transform="translate(94.587385, 200.715865)"><g><path d="M 11.34375 -21.90625 C 12.84375 -25 15.5625 -26.546875 19.5 -26.546875 C 22.101562 -26.546875 23.9375 -25.894531 25 -24.59375 C 25.5625 -23.96875 25.96875 -23.144531 26.21875 -22.125 C 26.46875 -21.101562 26.59375 -19.757812 26.59375 -18.09375 L 26.59375 -4.65625 C 26.59375 -3.28125 26.828125 -2.332031 27.296875 -1.8125 C 27.765625 -1.300781 28.597656 -1.046875 29.796875 -1.046875 L 29.796875 0 C 26.328125 -0.132812 24.128906 -0.203125 23.203125 -0.203125 C 22.066406 -0.203125 19.898438 -0.132812 16.703125 0 L 16.703125 -1.046875 C 17.703125 -1.046875 18.398438 -1.300781 18.796875 -1.8125 C 19.203125 -2.332031 19.40625 -3.28125 19.40625 -4.65625 L 19.40625 -20.203125 C 19.40625 -21.566406 19.175781 -22.597656 18.71875 -23.296875 C 18.269531 -23.992188 17.460938 -24.34375 16.296875 -24.34375 C 14.898438 -24.34375 13.722656 -23.800781 12.765625 -22.71875 C 11.816406 -21.632812 11.34375 -20.257812 11.34375 -18.59375 L 11.34375 -4.65625 C 11.34375 -3.28125 11.539062 -2.332031 11.9375 -1.8125 C 12.34375 -1.300781 13.046875 -1.046875 14.046875 -1.046875 L 14.046875 0 C 10.847656 -0.132812 8.78125 -0.203125 7.84375 -0.203125 C 6.71875 -0.203125 4.421875 -0.132812 0.953125 0 L 0.953125 -1.046875 C 2.117188 -1.046875 2.941406 -1.300781 3.421875 -1.8125 C 3.910156 -2.332031 4.15625 -3.28125 4.15625 -4.65625 L 4.15625 -33.09375 C 4.15625 -34.632812 3.910156 -35.753906 3.421875 -36.453125 C 2.941406 -37.148438 2.117188 -37.5 0.953125 -37.5 L 0.953125 -38.546875 C 2.015625 -38.453125 3.046875 -38.40625 4.046875 -38.40625 C 6.953125 -38.40625 9.382812 -38.632812 11.34375 -39.09375 Z M 11.34375 -21.90625 "/></g></g></g><g fill="#060606" fill-opacity="1"><g transform="translate(123.482688, 200.715865)"><g><path d="M 15.90625 -3.40625 C 18.632812 -3.40625 20.832031 -4.738281 22.5 -7.40625 L 23.40625 -7.09375 C 22.738281 -4.925781 21.546875 -3.082031 19.828125 -1.5625 C 18.109375 -0.0507812 15.96875 0.703125 13.40625 0.703125 C 9.863281 0.703125 7.050781 -0.421875 4.96875 -2.671875 C 2.882812 -4.921875 1.84375 -8.25 1.84375 -12.65625 C 1.84375 -17.15625 2.957031 -20.59375 5.1875 -22.96875 C 7.425781 -25.351562 10.394531 -26.546875 14.09375 -26.546875 C 20.363281 -26.546875 23.5 -22.847656 23.5 -15.453125 L 9.453125 -15.453125 C 9.421875 -14.953125 9.40625 -14.164062 9.40625 -13.09375 C 9.40625 -10.894531 9.710938 -9.0625 10.328125 -7.59375 C 10.941406 -6.132812 11.738281 -5.070312 12.71875 -4.40625 C 13.707031 -3.738281 14.769531 -3.40625 15.90625 -3.40625 Z M 13.796875 -25.5 C 12.597656 -25.5 11.609375 -24.753906 10.828125 -23.265625 C 10.046875 -21.785156 9.550781 -19.5 9.34375 -16.40625 L 17.203125 -16.40625 C 17.265625 -19.03125 17.003906 -21.203125 16.421875 -22.921875 C 15.835938 -24.640625 14.960938 -25.5 13.796875 -25.5 Z M 13.796875 -25.5 "/></g></g></g><g fill="#060606" fill-opacity="1"><g transform="translate(147.178794, 200.715865)"><g/></g></g><g fill="#060606" fill-opacity="1"><g transform="translate(157.326996, 200.715865)"><g><path d="M 17.15625 -34.40625 C 16.019531 -34.332031 15.203125 -34.195312 14.703125 -34 C 14.203125 -33.800781 13.859375 -33.414062 13.671875 -32.84375 C 13.492188 -32.28125 13.40625 -31.363281 13.40625 -30.09375 L 13.40625 -5.296875 C 13.40625 -4.035156 13.492188 -3.117188 13.671875 -2.546875 C 13.859375 -1.984375 14.203125 -1.597656 14.703125 -1.390625 C 15.203125 -1.191406 16.019531 -1.0625 17.15625 -1 L 17.15625 0 C 15.351562 -0.101562 12.832031 -0.15625 9.59375 -0.15625 C 6.03125 -0.15625 3.398438 -0.101562 1.703125 0 L 1.703125 -1 C 2.796875 -1.0625 3.601562 -1.191406 4.125 -1.390625 C 4.644531 -1.597656 4.992188 -1.984375 5.171875 -2.546875 C 5.359375 -3.117188 5.453125 -4.035156 5.453125 -5.296875 L 5.453125 -30.09375 C 5.453125 -31.363281 5.359375 -32.28125 5.171875 -32.84375 C 4.992188 -33.414062 4.644531 -33.800781 4.125 -34 C 3.601562 -34.195312 2.796875 -34.332031 1.703125 -34.40625 L 1.703125 -35.40625 C 3.398438 -35.300781 6.03125 -35.25 9.59375 -35.25 C 12.832031 -35.25 15.351562 -35.300781 17.15625 -35.40625 Z M 17.15625 -34.40625 "/></g></g></g><g fill="#060606" fill-opacity="1"><g transform="translate(174.624093, 200.715865)"><g><path d="M 19.796875 -26.546875 C 22.328125 -26.546875 24.160156 -25.894531 25.296875 -24.59375 C 25.867188 -23.96875 26.269531 -23.15625 26.5 -22.15625 C 26.726562 -21.15625 26.84375 -19.800781 26.84375 -18.09375 L 26.84375 -4.65625 C 26.84375 -3.28125 27.082031 -2.332031 27.5625 -1.8125 C 28.050781 -1.300781 28.878906 -1.046875 30.046875 -1.046875 L 30.046875 0 C 26.710938 -0.132812 24.515625 -0.203125 23.453125 -0.203125 C 22.453125 -0.203125 20.285156 -0.132812 16.953125 0 L 16.953125 -1.046875 C 17.953125 -1.046875 18.648438 -1.300781 19.046875 -1.8125 C 19.453125 -2.332031 19.65625 -3.28125 19.65625 -4.65625 L 19.65625 -20.203125 C 19.65625 -21.566406 19.425781 -22.597656 18.96875 -23.296875 C 18.519531 -23.992188 17.710938 -24.34375 16.546875 -24.34375 C 15.179688 -24.34375 14.015625 -23.785156 13.046875 -22.671875 C 12.078125 -21.554688 11.59375 -20.179688 11.59375 -18.546875 L 11.59375 -4.65625 C 11.59375 -3.28125 11.789062 -2.332031 12.1875 -1.8125 C 12.59375 -1.300781 13.296875 -1.046875 14.296875 -1.046875 L 14.296875 0 C 11.234375 -0.132812 9.164062 -0.203125 8.09375 -0.203125 C 7.09375 -0.203125 4.796875 -0.132812 1.203125 0 L 1.203125 -1.046875 C 2.398438 -1.046875 3.234375 -1.300781 3.703125 -1.8125 C 4.171875 -2.332031 4.40625 -3.28125 4.40625 -4.65625 L 4.40625 -20.40625 C 4.40625 -21.9375 4.171875 -23.050781 3.703125 -23.75 C 3.234375 -24.445312 2.398438 -24.796875 1.203125 -24.796875 L 1.203125 -25.84375 C 2.265625 -25.75 3.296875 -25.703125 4.296875 -25.703125 C 7.265625 -25.703125 9.695312 -25.9375 11.59375 -26.40625 L 11.59375 -21.90625 C 13.09375 -25 15.828125 -26.546875 19.796875 -26.546875 Z M 19.796875 -26.546875 "/></g></g></g><g fill="#060606" fill-opacity="1"><g transform="translate(203.819343, 200.715865)"><g><path d="M 11.09375 -26.546875 C 12.363281 -26.546875 13.53125 -26.382812 14.59375 -26.0625 C 15.664062 -25.75 16.484375 -25.394531 17.046875 -25 C 17.378906 -24.769531 17.679688 -24.65625 17.953125 -24.65625 C 18.253906 -24.65625 18.507812 -24.8125 18.71875 -25.125 C 18.9375 -25.4375 19.082031 -25.894531 19.15625 -26.5 L 20.203125 -26.5 C 20.066406 -24.800781 20 -21.867188 20 -17.703125 L 18.953125 -17.703125 C 18.648438 -19.898438 17.988281 -21.738281 16.96875 -23.21875 C 15.957031 -24.707031 14.484375 -25.453125 12.546875 -25.453125 C 11.546875 -25.453125 10.71875 -25.164062 10.0625 -24.59375 C 9.414062 -24.03125 9.09375 -23.25 9.09375 -22.25 C 9.09375 -21.113281 9.476562 -20.132812 10.25 -19.3125 C 11.019531 -18.5 12.21875 -17.507812 13.84375 -16.34375 L 15.296875 -15.296875 C 17.328125 -13.765625 18.828125 -12.398438 19.796875 -11.203125 C 20.765625 -10.003906 21.25 -8.503906 21.25 -6.703125 C 21.25 -5.234375 20.820312 -3.929688 19.96875 -2.796875 C 19.125 -1.660156 17.984375 -0.789062 16.546875 -0.1875 C 15.117188 0.40625 13.535156 0.703125 11.796875 0.703125 C 9.960938 0.703125 8.394531 0.351562 7.09375 -0.34375 C 6.03125 -0.882812 5.265625 -1.238281 4.796875 -1.40625 C 4.460938 -1.5 4.171875 -1.382812 3.921875 -1.0625 C 3.671875 -0.75 3.476562 -0.28125 3.34375 0.34375 L 2.296875 0.34375 C 2.429688 -1.550781 2.5 -4.882812 2.5 -9.65625 L 3.546875 -9.65625 C 4.210938 -3.519531 6.460938 -0.453125 10.296875 -0.453125 C 11.265625 -0.453125 12.085938 -0.742188 12.765625 -1.328125 C 13.453125 -1.910156 13.796875 -2.800781 13.796875 -4 C 13.796875 -4.9375 13.585938 -5.769531 13.171875 -6.5 C 12.753906 -7.226562 12.226562 -7.875 11.59375 -8.4375 C 10.96875 -9.007812 10.019531 -9.796875 8.75 -10.796875 C 7.25 -11.992188 6.109375 -12.957031 5.328125 -13.6875 C 4.546875 -14.425781 3.878906 -15.296875 3.328125 -16.296875 C 2.773438 -17.296875 2.5 -18.414062 2.5 -19.65625 C 2.5 -21.78125 3.332031 -23.457031 5 -24.6875 C 6.664062 -25.925781 8.695312 -26.546875 11.09375 -26.546875 Z M 11.09375 -26.546875 "/></g></g></g><g fill="#060606" fill-opacity="1"><g transform="translate(225.415762, 200.715865)"><g><path d="M 7.703125 -38.75 C 9.109375 -38.75 10.21875 -38.40625 11.03125 -37.71875 C 11.84375 -37.039062 12.25 -36.101562 12.25 -34.90625 C 12.25 -33.695312 11.84375 -32.75 11.03125 -32.0625 C 10.21875 -31.382812 9.109375 -31.046875 7.703125 -31.046875 C 6.304688 -31.046875 5.195312 -31.382812 4.375 -32.0625 C 3.5625 -32.75 3.15625 -33.695312 3.15625 -34.90625 C 3.15625 -36.101562 3.5625 -37.039062 4.375 -37.71875 C 5.195312 -38.40625 6.304688 -38.75 7.703125 -38.75 Z M 11.59375 -4.65625 C 11.59375 -3.28125 11.832031 -2.332031 12.3125 -1.8125 C 12.800781 -1.300781 13.628906 -1.046875 14.796875 -1.046875 L 14.796875 0 C 11.460938 -0.132812 9.25 -0.203125 8.15625 -0.203125 C 7.113281 -0.203125 4.796875 -0.132812 1.203125 0 L 1.203125 -1.046875 C 2.398438 -1.046875 3.234375 -1.300781 3.703125 -1.8125 C 4.171875 -2.332031 4.40625 -3.28125 4.40625 -4.65625 L 4.40625 -20.40625 C 4.40625 -21.9375 4.171875 -23.050781 3.703125 -23.75 C 3.234375 -24.445312 2.398438 -24.796875 1.203125 -24.796875 L 1.203125 -25.84375 C 2.265625 -25.75 3.296875 -25.703125 4.296875 -25.703125 C 7.265625 -25.703125 9.695312 -25.9375 11.59375 -26.40625 Z M 11.59375 -4.65625 "/></g></g></g><g fill="#060606" fill-opacity="1"><g transform="translate(239.663323, 200.715865)"><g><path d="M 24.90625 -21.046875 C 24.238281 -21.046875 23.671875 -21.269531 23.203125 -21.71875 C 22.734375 -22.175781 22.5 -22.820312 22.5 -23.65625 C 22.5 -24.445312 22.695312 -25.257812 23.09375 -26.09375 C 22.300781 -25.757812 21.644531 -25.382812 21.125 -24.96875 C 20.601562 -24.550781 20.160156 -24.03125 19.796875 -23.40625 C 20.828125 -22.164062 21.34375 -20.5625 21.34375 -18.59375 C 21.34375 -15.96875 20.4375 -13.988281 18.625 -12.65625 C 16.8125 -11.320312 14.40625 -10.65625 11.40625 -10.65625 L 10.5 -10.65625 C 9.132812 -9.851562 8.453125 -8.96875 8.453125 -8 C 8.453125 -6.9375 9.117188 -6.40625 10.453125 -6.40625 L 15.90625 -6.40625 C 18.832031 -6.40625 21.171875 -5.863281 22.921875 -4.78125 C 24.671875 -3.695312 25.546875 -2.035156 25.546875 0.203125 C 25.546875 1.898438 25.003906 3.441406 23.921875 4.828125 C 22.835938 6.210938 21.195312 7.320312 19 8.15625 C 16.800781 8.988281 14.101562 9.40625 10.90625 9.40625 C 7.664062 9.40625 5.070312 8.992188 3.125 8.171875 C 1.175781 7.359375 0.203125 6.1875 0.203125 4.65625 C 0.203125 3.613281 0.664062 2.6875 1.59375 1.875 C 2.53125 1.0625 3.914062 0.421875 5.75 -0.046875 L 6.203125 0.75 C 5.003906 1.75 4.40625 2.898438 4.40625 4.203125 C 4.40625 5.597656 5.035156 6.671875 6.296875 7.421875 C 7.566406 8.171875 9.316406 8.546875 11.546875 8.546875 C 13.878906 8.546875 15.769531 8.078125 17.21875 7.140625 C 18.675781 6.210938 19.40625 4.898438 19.40625 3.203125 C 19.40625 2.097656 18.992188 1.226562 18.171875 0.59375 C 17.359375 -0.03125 15.9375 -0.34375 13.90625 -0.34375 L 10.796875 -0.34375 C 8.660156 -0.34375 6.992188 -0.703125 5.796875 -1.421875 C 4.597656 -2.140625 4 -3.234375 4 -4.703125 C 4 -5.929688 4.429688 -7.03125 5.296875 -8 C 6.160156 -8.96875 7.476562 -9.898438 9.25 -10.796875 C 6.851562 -11.097656 4.953125 -11.898438 3.546875 -13.203125 C 2.148438 -14.503906 1.453125 -16.300781 1.453125 -18.59375 C 1.453125 -21.226562 2.359375 -23.210938 4.171875 -24.546875 C 5.992188 -25.878906 8.40625 -26.546875 11.40625 -26.546875 C 14.738281 -26.546875 17.285156 -25.765625 19.046875 -24.203125 C 19.679688 -25.097656 20.460938 -25.8125 21.390625 -26.34375 C 22.328125 -26.882812 23.28125 -27.15625 24.25 -27.15625 C 25.25 -27.15625 26.039062 -26.863281 26.625 -26.28125 C 27.207031 -25.695312 27.5 -24.9375 27.5 -24 C 27.5 -23.0625 27.238281 -22.332031 26.71875 -21.8125 C 26.207031 -21.300781 25.601562 -21.046875 24.90625 -21.046875 Z M 11.40625 -11.546875 C 12.332031 -11.546875 13.035156 -12.078125 13.515625 -13.140625 C 14.003906 -14.210938 14.25 -16.03125 14.25 -18.59375 C 14.25 -21.164062 14.003906 -22.984375 13.515625 -24.046875 C 13.035156 -25.117188 12.332031 -25.65625 11.40625 -25.65625 C 10.46875 -25.65625 9.753906 -25.117188 9.265625 -24.046875 C 8.785156 -22.984375 8.546875 -21.164062 8.546875 -18.59375 C 8.546875 -16.03125 8.785156 -14.210938 9.265625 -13.140625 C 9.753906 -12.078125 10.46875 -11.546875 11.40625 -11.546875 Z M 11.40625 -11.546875 "/></g></g></g><g fill="#060606" fill-opacity="1"><g transform="translate(265.809054, 200.715865)"><g><path d="M 11.34375 -21.90625 C 12.84375 -25 15.5625 -26.546875 19.5 -26.546875 C 22.101562 -26.546875 23.9375 -25.894531 25 -24.59375 C 25.5625 -23.96875 25.96875 -23.144531 26.21875 -22.125 C 26.46875 -21.101562 26.59375 -19.757812 26.59375 -18.09375 L 26.59375 -4.65625 C 26.59375 -3.28125 26.828125 -2.332031 27.296875 -1.8125 C 27.765625 -1.300781 28.597656 -1.046875 29.796875 -1.046875 L 29.796875 0 C 26.328125 -0.132812 24.128906 -0.203125 23.203125 -0.203125 C 22.066406 -0.203125 19.898438 -0.132812 16.703125 0 L 16.703125 -1.046875 C 17.703125 -1.046875 18.398438 -1.300781 18.796875 -1.8125 C 19.203125 -2.332031 19.40625 -3.28125 19.40625 -4.65625 L 19.40625 -20.203125 C 19.40625 -21.566406 19.175781 -22.597656 18.71875 -23.296875 C 18.269531 -23.992188 17.460938 -24.34375 16.296875 -24.34375 C 14.898438 -24.34375 13.722656 -23.800781 12.765625 -22.71875 C 11.816406 -21.632812 11.34375 -20.257812 11.34375 -18.59375 L 11.34375 -4.65625 C 11.34375 -3.28125 11.539062 -2.332031 11.9375 -1.8125 C 12.34375 -1.300781 13.046875 -1.046875 14.046875 -1.046875 L 14.046875 0 C 10.847656 -0.132812 8.78125 -0.203125 7.84375 -0.203125 C 6.71875 -0.203125 4.421875 -0.132812 0.953125 0 L 0.953125 -1.046875 C 2.117188 -1.046875 2.941406 -1.300781 3.421875 -1.8125 C 3.910156 -2.332031 4.15625 -3.28125 4.15625 -4.65625 L 4.15625 -33.09375 C 4.15625 -34.632812 3.910156 -35.753906 3.421875 -36.453125 C 2.941406 -37.148438 2.117188 -37.5 0.953125 -37.5 L 0.953125 -38.546875 C 2.015625 -38.453125 3.046875 -38.40625 4.046875 -38.40625 C 6.953125 -38.40625 9.382812 -38.632812 11.34375 -39.09375 Z M 11.34375 -21.90625 "/></g></g></g><g fill="#060606" fill-opacity="1"><g transform="translate(294.704354, 200.715865)"><g><path d="M 11.34375 -25.84375 L 17.25 -25.84375 L 17.25 -24.84375 L 11.34375 -24.84375 L 11.34375 -4.65625 C 11.34375 -3.65625 11.519531 -2.945312 11.875 -2.53125 C 12.226562 -2.113281 12.785156 -1.90625 13.546875 -1.90625 C 14.984375 -1.90625 16.117188 -2.90625 16.953125 -4.90625 L 17.796875 -4.453125 C 16.535156 -1.015625 14.253906 0.703125 10.953125 0.703125 C 8.753906 0.703125 7.085938 0.132812 5.953125 -1 C 5.253906 -1.695312 4.78125 -2.570312 4.53125 -3.625 C 4.28125 -4.675781 4.15625 -6.117188 4.15625 -7.953125 L 4.15625 -24.84375 L -0.046875 -24.84375 L -0.046875 -25.84375 L 4.15625 -25.84375 L 4.15625 -32.453125 C 6.914062 -32.453125 9.3125 -32.984375 11.34375 -34.046875 Z M 11.34375 -25.84375 "/></g></g></g><g clip-path="url(#a6b66bac14)"><path fill="#fbfaf9" d="M 57.050781 221.089844 L 317.207031 221.089844 L 317.207031 245.699219 L 57.050781 245.699219 Z M 57.050781 221.089844 " fill-opacity="1" fill-rule="nonzero"/></g><g fill="#060606" fill-opacity="1"><g transform="translate(78.484364, 237.694247)"><g><path d="M 4.859375 -2.984375 L 4.859375 0 L 3.359375 0 L 3.359375 -2.9375 L 0.015625 -8.984375 L 1.546875 -8.984375 L 4.109375 -4.609375 L 6.625 -8.984375 L 8.15625 -8.984375 Z M 4.859375 -2.984375 "/></g></g></g><g fill="#060606" fill-opacity="1"><g transform="translate(93.707987, 237.694247)"><g><path d="M 1.8125 -7.703125 C 2.726562 -8.578125 3.851562 -9.015625 5.1875 -9.015625 C 6.53125 -9.015625 7.660156 -8.578125 8.578125 -7.703125 C 9.492188 -6.835938 9.953125 -5.765625 9.953125 -4.484375 C 9.953125 -3.203125 9.492188 -2.125 8.578125 -1.25 C 7.660156 -0.375 6.53125 0.0625 5.1875 0.0625 C 3.851562 0.0625 2.726562 -0.375 1.8125 -1.25 C 0.894531 -2.125 0.4375 -3.203125 0.4375 -4.484375 C 0.4375 -5.765625 0.894531 -6.835938 1.8125 -7.703125 Z M 5.203125 -7.65625 C 4.316406 -7.65625 3.554688 -7.347656 2.921875 -6.734375 C 2.285156 -6.128906 1.96875 -5.378906 1.96875 -4.484375 C 1.96875 -3.597656 2.285156 -2.84375 2.921875 -2.21875 C 3.566406 -1.601562 4.328125 -1.296875 5.203125 -1.296875 C 6.085938 -1.296875 6.84375 -1.601562 7.46875 -2.21875 C 8.09375 -2.84375 8.40625 -3.597656 8.40625 -4.484375 C 8.40625 -5.378906 8.09375 -6.128906 7.46875 -6.734375 C 6.84375 -7.347656 6.085938 -7.65625 5.203125 -7.65625 Z M 5.203125 -7.65625 "/></g></g></g><g fill="#060606" fill-opacity="1"><g transform="translate(111.149522, 237.694247)"><g><path d="M 8.8125 -8.984375 L 8.8125 -3.71875 C 8.8125 -2.550781 8.460938 -1.628906 7.765625 -0.953125 C 7.078125 -0.273438 6.125 0.0625 4.90625 0.0625 C 3.695312 0.0625 2.742188 -0.273438 2.046875 -0.953125 C 1.347656 -1.628906 1 -2.550781 1 -3.71875 L 1 -8.984375 L 2.515625 -8.984375 L 2.515625 -3.71875 C 2.515625 -2.96875 2.726562 -2.375 3.15625 -1.9375 C 3.59375 -1.507812 4.179688 -1.296875 4.921875 -1.296875 C 5.660156 -1.296875 6.238281 -1.507812 6.65625 -1.9375 C 7.082031 -2.363281 7.296875 -2.957031 7.296875 -3.71875 L 7.296875 -8.984375 Z M 8.8125 -8.984375 "/></g></g></g><g fill="#060606" fill-opacity="1"><g transform="translate(128.001321, 237.694247)"><g><path d="M 6.875 0 L 5.234375 -2.71875 C 5.148438 -2.707031 5.015625 -2.703125 4.828125 -2.703125 L 2.6875 -2.703125 L 2.6875 0 L 1.1875 0 L 1.1875 -8.984375 L 4.828125 -8.984375 C 5.972656 -8.984375 6.859375 -8.710938 7.484375 -8.171875 C 8.117188 -7.640625 8.4375 -6.882812 8.4375 -5.90625 C 8.4375 -5.195312 8.273438 -4.59375 7.953125 -4.09375 C 7.640625 -3.59375 7.179688 -3.226562 6.578125 -3 L 8.59375 0 Z M 2.6875 -4.0625 L 4.828125 -4.0625 C 6.273438 -4.0625 7 -4.664062 7 -5.875 C 7 -7.039062 6.273438 -7.625 4.828125 -7.625 L 2.6875 -7.625 Z M 2.6875 -4.0625 "/></g></g></g><g fill="#060606" fill-opacity="1"><g transform="translate(144.32749, 237.694247)"><g/></g></g><g fill="#060606" fill-opacity="1"><g transform="translate(154.692249, 237.694247)"><g><path d="M 1.1875 -8.984375 L 4.859375 -8.984375 C 6.203125 -8.984375 7.3125 -8.554688 8.1875 -7.703125 C 9.0625 -6.859375 9.5 -5.785156 9.5 -4.484375 C 9.5 -3.191406 9.054688 -2.117188 8.171875 -1.265625 C 7.296875 -0.421875 6.179688 0 4.828125 0 L 1.1875 0 Z M 2.6875 -7.625 L 2.6875 -1.359375 L 4.90625 -1.359375 C 5.78125 -1.359375 6.507812 -1.648438 7.09375 -2.234375 C 7.6875 -2.828125 7.984375 -3.578125 7.984375 -4.484375 C 7.984375 -5.390625 7.679688 -6.140625 7.078125 -6.734375 C 6.472656 -7.328125 5.726562 -7.625 4.84375 -7.625 Z M 2.6875 -7.625 "/></g></g></g><g fill="#060606" fill-opacity="1"><g transform="translate(171.685071, 237.694247)"><g><path d="M 6.984375 -2.03125 L 2.453125 -2.03125 L 1.59375 0 L 0.015625 0 L 3.984375 -8.984375 L 5.53125 -8.984375 L 9.453125 0 L 7.84375 0 Z M 6.40625 -3.375 L 4.703125 -7.359375 L 3.015625 -3.375 Z M 6.40625 -3.375 "/></g></g></g><g fill="#060606" fill-opacity="1"><g transform="translate(188.203546, 237.694247)"><g><path d="M 2.6875 0 L 1.1875 0 L 1.1875 -8.984375 L 2.6875 -8.984375 Z M 2.6875 0 "/></g></g></g><g fill="#060606" fill-opacity="1"><g transform="translate(199.132401, 237.694247)"><g><path d="M 2.6875 -1.375 L 6.578125 -1.375 L 6.578125 0 L 1.1875 0 L 1.1875 -8.984375 L 2.6875 -8.984375 Z M 2.6875 -1.375 "/></g></g></g><g fill="#060606" fill-opacity="1"><g transform="translate(213.035553, 237.694247)"><g><path d="M 4.859375 -2.984375 L 4.859375 0 L 3.359375 0 L 3.359375 -2.9375 L 0.015625 -8.984375 L 1.546875 -8.984375 L 4.109375 -4.609375 L 6.625 -8.984375 L 8.15625 -8.984375 Z M 4.859375 -2.984375 "/></g></g></g><g fill="#060606" fill-opacity="1"><g transform="translate(228.259181, 237.694247)"><g/></g></g><g fill="#060606" fill-opacity="1"><g transform="translate(238.623945, 237.694247)"><g><path d="M 1.1875 -8.984375 L 4.859375 -8.984375 C 6.203125 -8.984375 7.3125 -8.554688 8.1875 -7.703125 C 9.0625 -6.859375 9.5 -5.785156 9.5 -4.484375 C 9.5 -3.191406 9.054688 -2.117188 8.171875 -1.265625 C 7.296875 -0.421875 6.179688 0 4.828125 0 L 1.1875 0 Z M 2.6875 -7.625 L 2.6875 -1.359375 L 4.90625 -1.359375 C 5.78125 -1.359375 6.507812 -1.648438 7.09375 -2.234375 C 7.6875 -2.828125 7.984375 -3.578125 7.984375 -4.484375 C 7.984375 -5.390625 7.679688 -6.140625 7.078125 -6.734375 C 6.472656 -7.328125 5.726562 -7.625 4.84375 -7.625 Z M 2.6875 -7.625 "/></g></g></g><g fill="#060606" fill-opacity="1"><g transform="translate(255.616772, 237.694247)"><g><path d="M 1.8125 -7.703125 C 2.726562 -8.578125 3.851562 -9.015625 5.1875 -9.015625 C 6.53125 -9.015625 7.660156 -8.578125 8.578125 -7.703125 C 9.492188 -6.835938 9.953125 -5.765625 9.953125 -4.484375 C 9.953125 -3.203125 9.492188 -2.125 8.578125 -1.25 C 7.660156 -0.375 6.53125 0.0625 5.1875 0.0625 C 3.851562 0.0625 2.726562 -0.375 1.8125 -1.25 C 0.894531 -2.125 0.4375 -3.203125 0.4375 -4.484375 C 0.4375 -5.765625 0.894531 -6.835938 1.8125 -7.703125 Z M 5.203125 -7.65625 C 4.316406 -7.65625 3.554688 -7.347656 2.921875 -6.734375 C 2.285156 -6.128906 1.96875 -5.378906 1.96875 -4.484375 C 1.96875 -3.597656 2.285156 -2.84375 2.921875 -2.21875 C 3.566406 -1.601562 4.328125 -1.296875 5.203125 -1.296875 C 6.085938 -1.296875 6.84375 -1.601562 7.46875 -2.21875 C 8.09375 -2.84375 8.40625 -3.597656 8.40625 -4.484375 C 8.40625 -5.378906 8.09375 -6.128906 7.46875 -6.734375 C 6.84375 -7.347656 6.085938 -7.65625 5.203125 -7.65625 Z M 5.203125 -7.65625 "/></g></g></g><g fill="#060606" fill-opacity="1"><g transform="translate(273.058311, 237.694247)"><g><path d="M 4.125 -9.046875 C 5.289062 -9.046875 6.34375 -8.738281 7.28125 -8.125 L 6.640625 -6.78125 C 5.722656 -7.34375 4.847656 -7.625 4.015625 -7.625 C 3.554688 -7.625 3.195312 -7.539062 2.9375 -7.375 C 2.675781 -7.207031 2.546875 -6.972656 2.546875 -6.671875 C 2.546875 -6.378906 2.664062 -6.128906 2.90625 -5.921875 C 3.144531 -5.710938 3.441406 -5.554688 3.796875 -5.453125 C 4.160156 -5.359375 4.550781 -5.234375 4.96875 -5.078125 C 5.394531 -4.929688 5.785156 -4.773438 6.140625 -4.609375 C 6.503906 -4.441406 6.800781 -4.179688 7.03125 -3.828125 C 7.269531 -3.472656 7.390625 -3.046875 7.390625 -2.546875 C 7.390625 -1.753906 7.070312 -1.125 6.4375 -0.65625 C 5.8125 -0.1875 5 0.046875 4 0.046875 C 3.3125 0.046875 2.644531 -0.078125 2 -0.328125 C 1.363281 -0.585938 0.804688 -0.9375 0.328125 -1.375 L 0.984375 -2.6875 C 1.441406 -2.257812 1.941406 -1.929688 2.484375 -1.703125 C 3.023438 -1.484375 3.539062 -1.375 4.03125 -1.375 C 4.5625 -1.375 4.972656 -1.46875 5.265625 -1.65625 C 5.554688 -1.851562 5.703125 -2.125 5.703125 -2.46875 C 5.703125 -2.769531 5.582031 -3.023438 5.34375 -3.234375 C 5.101562 -3.441406 4.800781 -3.59375 4.4375 -3.6875 C 4.082031 -3.789062 3.695312 -3.910156 3.28125 -4.046875 C 2.863281 -4.191406 2.472656 -4.34375 2.109375 -4.5 C 1.753906 -4.664062 1.457031 -4.921875 1.21875 -5.265625 C 0.976562 -5.617188 0.859375 -6.046875 0.859375 -6.546875 C 0.859375 -7.304688 1.15625 -7.910156 1.75 -8.359375 C 2.351562 -8.816406 3.144531 -9.046875 4.125 -9.046875 Z M 4.125 -9.046875 "/></g></g></g><g fill="#060606" fill-opacity="1"><g transform="translate(288.089644, 237.694247)"><g><path d="M 7.59375 -7.625 L 2.6875 -7.625 L 2.6875 -5.203125 L 7.078125 -5.203125 L 7.078125 -3.828125 L 2.6875 -3.828125 L 2.6875 -1.359375 L 7.75 -1.359375 L 7.75 0 L 1.1875 0 L 1.1875 -8.984375 L 7.59375 -8.984375 Z M 7.59375 -7.625 "/></g></g></g><g fill="#060606" fill-opacity="1"><g transform="translate(135.882797, 254.944246)"><g><path d="M 1.8125 -7.703125 C 2.726562 -8.578125 3.851562 -9.015625 5.1875 -9.015625 C 6.53125 -9.015625 7.660156 -8.578125 8.578125 -7.703125 C 9.492188 -6.835938 9.953125 -5.765625 9.953125 -4.484375 C 9.953125 -3.203125 9.492188 -2.125 8.578125 -1.25 C 7.660156 -0.375 6.53125 0.0625 5.1875 0.0625 C 3.851562 0.0625 2.726562 -0.375 1.8125 -1.25 C 0.894531 -2.125 0.4375 -3.203125 0.4375 -4.484375 C 0.4375 -5.765625 0.894531 -6.835938 1.8125 -7.703125 Z M 5.203125 -7.65625 C 4.316406 -7.65625 3.554688 -7.347656 2.921875 -6.734375 C 2.285156 -6.128906 1.96875 -5.378906 1.96875 -4.484375 C 1.96875 -3.597656 2.285156 -2.84375 2.921875 -2.21875 C 3.566406 -1.601562 4.328125 -1.296875 5.203125 -1.296875 C 6.085938 -1.296875 6.84375 -1.601562 7.46875 -2.21875 C 8.09375 -2.84375 8.40625 -3.597656 8.40625 -4.484375 C 8.40625 -5.378906 8.09375 -6.128906 7.46875 -6.734375 C 6.84375 -7.347656 6.085938 -7.65625 5.203125 -7.65625 Z M 5.203125 -7.65625 "/></g></g></g><g fill="#060606" fill-opacity="1"><g transform="translate(153.324332, 254.944246)"><g><path d="M 7.203125 -7.625 L 2.6875 -7.625 L 2.6875 -5.03125 L 6.765625 -5.03125 L 6.765625 -3.6875 L 2.6875 -3.6875 L 2.6875 0 L 1.1875 0 L 1.1875 -8.984375 L 7.203125 -8.984375 Z M 7.203125 -7.625 "/></g></g></g><g fill="#060606" fill-opacity="1"><g transform="translate(167.753106, 254.944246)"><g/></g></g><g fill="#060606" fill-opacity="1"><g transform="translate(178.117868, 254.944246)"><g><path d="M 8.96875 0 L 7.484375 0 L 2.6875 -6.4375 L 2.6875 0 L 1.1875 0 L 1.1875 -8.984375 L 2.671875 -8.984375 L 7.484375 -2.53125 L 7.484375 -8.984375 L 8.96875 -8.984375 Z M 8.96875 0 "/></g></g></g><g fill="#060606" fill-opacity="1"><g transform="translate(195.328631, 254.944246)"><g><path d="M 7.59375 -7.625 L 2.6875 -7.625 L 2.6875 -5.203125 L 7.078125 -5.203125 L 7.078125 -3.828125 L 2.6875 -3.828125 L 2.6875 -1.359375 L 7.75 -1.359375 L 7.75 0 L 1.1875 0 L 1.1875 -8.984375 L 7.59375 -8.984375 Z M 7.59375 -7.625 "/></g></g></g><g fill="#060606" fill-opacity="1"><g transform="translate(210.795841, 254.944246)"><g><path d="M 10.421875 0 L 8.859375 0 L 6.734375 -7 L 4.578125 0 L 3.015625 0 L 0.03125 -8.984375 L 1.671875 -8.984375 L 3.84375 -1.6875 L 6.015625 -8.96875 L 7.5 -8.984375 L 9.6875 -1.6875 L 11.859375 -8.984375 L 13.421875 -8.984375 Z M 10.421875 0 "/></g></g></g><g fill="#060606" fill-opacity="1"><g transform="translate(231.134743, 254.944246)"><g><path d="M 4.125 -9.046875 C 5.289062 -9.046875 6.34375 -8.738281 7.28125 -8.125 L 6.640625 -6.78125 C 5.722656 -7.34375 4.847656 -7.625 4.015625 -7.625 C 3.554688 -7.625 3.195312 -7.539062 2.9375 -7.375 C 2.675781 -7.207031 2.546875 -6.972656 2.546875 -6.671875 C 2.546875 -6.378906 2.664062 -6.128906 2.90625 -5.921875 C 3.144531 -5.710938 3.441406 -5.554688 3.796875 -5.453125 C 4.160156 -5.359375 4.550781 -5.234375 4.96875 -5.078125 C 5.394531 -4.929688 5.785156 -4.773438 6.140625 -4.609375 C 6.503906 -4.441406 6.800781 -4.179688 7.03125 -3.828125 C 7.269531 -3.472656 7.390625 -3.046875 7.390625 -2.546875 C 7.390625 -1.753906 7.070312 -1.125 6.4375 -0.65625 C 5.8125 -0.1875 5 0.046875 4 0.046875 C 3.3125 0.046875 2.644531 -0.078125 2 -0.328125 C 1.363281 -0.585938 0.804688 -0.9375 0.328125 -1.375 L 0.984375 -2.6875 C 1.441406 -2.257812 1.941406 -1.929688 2.484375 -1.703125 C 3.023438 -1.484375 3.539062 -1.375 4.03125 -1.375 C 4.5625 -1.375 4.972656 -1.46875 5.265625 -1.65625 C 5.554688 -1.851562 5.703125 -2.125 5.703125 -2.46875 C 5.703125 -2.769531 5.582031 -3.023438 5.34375 -3.234375 C 5.101562 -3.441406 4.800781 -3.59375 4.4375 -3.6875 C 4.082031 -3.789062 3.695312 -3.910156 3.28125 -4.046875 C 2.863281 -4.191406 2.472656 -4.34375 2.109375 -4.5 C 1.753906 -4.664062 1.457031 -4.921875 1.21875 -5.265625 C 0.976562 -5.617188 0.859375 -6.046875 0.859375 -6.546875 C 0.859375 -7.304688 1.15625 -7.910156 1.75 -8.359375 C 2.351562 -8.816406 3.144531 -9.046875 4.125 -9.046875 Z M 4.125 -9.046875 "/></g></g></g></svg>